<svg xmlns="http://www.w3.org/2000/svg" width="1200" height="630" viewBox="0 0 1200 630" role="img" aria-labelledby="t d"><title id="t">Алексей Курносов — архитектор цифровых продуктов</title><desc id="d">Технологичная обложка с нейронной сетью.</desc><defs><linearGradient id="bg" x2="1" y2="1"><stop stop-color="#050b12"/><stop offset=".55" stop-color="#07101c"/><stop offset="1" stop-color="#0b1824"/></linearGradient><linearGradient id="a"><stop stop-color="#35d7ff"/><stop offset="1" stop-color="#8cff7a"/></linearGradient><radialGradient id="gl"><stop stop-color="#35d7ff" stop-opacity=".28"/><stop offset="1" stop-color="#35d7ff" stop-opacity="0"/></radialGradient><pattern id="grid" width="48" height="48" patternUnits="userSpaceOnUse"><path d="M48 0H0V48" fill="none" stroke="#dffaff" stroke-opacity=".045"/></pattern></defs><rect width="1200" height="630" fill="url(#bg)"/><rect width="1200" height="630" fill="url(#grid)"/><circle cx="920" cy="260" r="390" fill="url(#gl)"/><rect width="1200" height="6" fill="url(#a)"/><g fill="none" stroke="#75e9ff" stroke-opacity=".32"><path d="M680 130l120-55 88 83 100-62 91 95 84-53M660 240l126-48 98 70 101-45 103 68 80-49M680 355l111-54 101 73 95-48 117 72 72-55M725 480l96-69 109 82 88-62 107 81M800 75l-14 117 5 109 30 110M888 158l-4 104 8 112 38 119M988 96l-3 121 2 109 31 105M1079 191l9 94 16 113 21 114"/></g><g fill="#07101c" stroke-width="3"><circle cx="680" cy="130" r="7" stroke="#35d7ff"/><circle cx="800" cy="75" r="9" stroke="#8cff7a"/><circle cx="888" cy="158" r="7" stroke="#35d7ff"/><circle cx="988" cy="96" r="9" stroke="#8cff7a"/><circle cx="1079" cy="191" r="8" stroke="#35d7ff"/><circle cx="1163" cy="138" r="6" stroke="#8cff7a"/><circle cx="660" cy="240" r="6" stroke="#8cff7a"/><circle cx="786" cy="192" r="8" stroke="#35d7ff"/><circle cx="884" cy="262" r="10" stroke="#8cff7a"/><circle cx="985" cy="217" r="7" stroke="#35d7ff"/><circle cx="1088" cy="285" r="10" stroke="#8cff7a"/><circle cx="1168" cy="236" r="7" stroke="#35d7ff"/><circle cx="680" cy="355" r="8" stroke="#35d7ff"/><circle cx="791" cy="301" r="6" stroke="#8cff7a"/><circle cx="892" cy="374" r="9" stroke="#35d7ff"/><circle cx="987" cy="326" r="7" stroke="#8cff7a"/><circle cx="1104" cy="398" r="10" stroke="#35d7ff"/><circle cx="1176" cy="343" r="6" stroke="#8cff7a"/><circle cx="725" cy="480" r="7" stroke="#8cff7a"/><circle cx="821" cy="411" r="9" stroke="#35d7ff"/><circle cx="930" cy="493" r="7" stroke="#8cff7a"/><circle cx="1018" cy="431" r="9" stroke="#35d7ff"/><circle cx="1125" cy="512" r="8" stroke="#8cff7a"/></g><g font-family="Inter,Arial,sans-serif"><rect x="60" y="54" width="88" height="38" rx="19" fill="#0d1a24" stroke="#35d7ff" stroke-opacity=".3"/><circle cx="82" cy="73" r="5" fill="#8cff7a"/><text x="97" y="79" font-size="15" font-weight="700" letter-spacing="2" fill="#dffaff">DEATIN</text><text x="60" y="190" font-size="24" font-weight="700" letter-spacing="4" fill="#8cff7a">АРХИТЕКТОР СИСТЕМ И ПРОДУКТОВ</text><text x="56" y="287" font-size="74" font-weight="800" fill="#f5f8fb">Алексей</text><text x="56" y="370" font-size="74" font-weight="800" fill="url(#a)">Курносов</text><text x="61" y="426" font-size="24" font-weight="500" fill="#b8c8d5">Enterprise architecture · 1С · Integrations · Digital products</text><rect x="60" y="486" width="176" height="52" rx="26" fill="#f5f8fb"/><text x="88" y="520" font-size="17" font-weight="800" fill="#07101c">DEATIN.RU</text><circle cx="207" cy="512" r="13" fill="#8cff7a"/><path d="M202 512h10m-4-4 4 4-4 4" fill="none" stroke="#07101c" stroke-width="2"/><g transform="translate(865 315)"><circle r="114" fill="#07101c" fill-opacity=".78" stroke="url(#a)" stroke-width="3"/><circle r="88" fill="none" stroke="#f5f8fb" stroke-opacity=".12"/><text y="22" text-anchor="middle" font-size="62" font-weight="800" fill="#f5f8fb">AK</text><circle cx="82" cy="-74" r="7" fill="#8cff7a"/><circle cx="-93" cy="44" r="5" fill="#35d7ff"/></g></g></svg>